<svg xmlns="http://www.w3.org/2000/svg" width="112.212" height="22.959" viewBox="0 0 112.212 22.959">
  <g id="Group_73" data-name="Group 73" transform="translate(-1017 -1490)">
    <g id="facebook" transform="translate(1017 1490)">
      <path id="Facebook__x28_alt_x29_" d="M22.46,3.744A3.88,3.88,0,0,0,18.717,0H3.743A3.88,3.88,0,0,0,0,3.744V18.716A3.88,3.88,0,0,0,3.744,22.46H11.23V13.975H8.485V10.232H11.23V8.773c0-2.515,1.889-4.78,4.211-4.78h3.026V7.736H15.441c-.331,0-.717.4-.717,1v1.491h3.743v3.743H14.724V22.46h3.993a3.88,3.88,0,0,0,3.743-3.744Z" transform="translate(0 0)" fill="#fff"/>
    </g>
    <g id="instagram" transform="translate(1061.377 1490)">
      <path id="Path_2" data-name="Path 2" d="M93.592,83.438H85.717a2.282,2.282,0,0,0-2.279,2.279v7.875a2.282,2.282,0,0,0,2.279,2.28h7.875a2.282,2.282,0,0,0,2.28-2.28V85.717A2.282,2.282,0,0,0,93.592,83.438Zm-3.937,10.31a4.093,4.093,0,1,1,4.093-4.093A4.1,4.1,0,0,1,89.655,93.748Zm4.225-7.34a.968.968,0,1,1,.968-.968A.97.97,0,0,1,93.88,86.408Z" transform="translate(-78.175 -78.175)" fill="#fff" fill-rule="evenodd"/>
      <path id="Path_3" data-name="Path 3" d="M146.887,144.531a2.364,2.364,0,1,0,2.363,2.363A2.367,2.367,0,0,0,146.887,144.531Z" transform="translate(-135.407 -135.415)" fill="#fff" fill-rule="evenodd"/>
      <path id="Path_4" data-name="Path 4" d="M0,0V22.959H22.959V0ZM19.426,15.417a4.013,4.013,0,0,1-4.009,4.009H7.542a4.013,4.013,0,0,1-4.009-4.009V7.542A4.014,4.014,0,0,1,7.542,3.533h7.875a4.013,4.013,0,0,1,4.009,4.009Z" fill="#fff" fill-rule="evenodd"/>
    </g>
    <g id="twitter" transform="translate(1106.253 1490)">
      <g id="Group_8" data-name="Group 8">
        <g id="Group_7" data-name="Group 7">
          <path id="Path_5" data-name="Path 5" d="M18.654,0H4.3A4.3,4.3,0,0,0,0,4.3V18.654a4.3,4.3,0,0,0,4.3,4.3H18.654a4.3,4.3,0,0,0,4.3-4.3V4.3A4.3,4.3,0,0,0,18.654,0ZM17.191,8.9l.009.366A8.037,8.037,0,0,1,4.826,16.04a5.812,5.812,0,0,0,.674.04,5.671,5.671,0,0,0,3.51-1.21,2.831,2.831,0,0,1-2.64-1.963,2.949,2.949,0,0,0,.532.049,2.826,2.826,0,0,0,.745-.1A2.829,2.829,0,0,1,5.38,10.088v-.036a2.822,2.822,0,0,0,1.28.354,2.831,2.831,0,0,1-.875-3.772A8.021,8.021,0,0,0,11.61,9.587,2.829,2.829,0,0,1,16.427,7.01a5.723,5.723,0,0,0,1.8-.686A2.834,2.834,0,0,1,16.98,7.888,5.666,5.666,0,0,0,18.6,7.443,5.713,5.713,0,0,1,17.191,8.9Z" fill="#fff"/>
        </g>
      </g>
    </g>
  </g>
</svg>
